<svg width="16" height="17" viewBox="0 0 16 17" fill="none" xmlns="http://www.w3.org/2000/svg">
<path d="M8.68066 15.1328C8.45683 15.1556 8.22976 15.167 8 15.167C8.11463 15.167 8.22857 15.164 8.3418 15.1582L8.68066 15.1328ZM4.82422 14.3613C5.58002 14.7725 6.42373 15.0416 7.31934 15.1328L7.65723 15.1582C6.74908 15.1121 5.88851 14.8838 5.11133 14.5088L4.82422 14.3613ZM11.4541 14.2012C11.0876 14.424 10.6982 14.613 10.29 14.7627L9.98047 14.8672C10.3976 14.7371 10.7971 14.5668 11.1748 14.3613L11.4541 14.2012ZM2.65918 12.4873C3.04341 13.0007 3.50025 13.4566 4.01367 13.8408L4.27441 14.0273C3.74227 13.6676 3.26433 13.2334 2.85645 12.7393L2.65918 12.4873ZM13.5264 12.2256C13.1066 12.8465 12.5855 13.3935 11.9863 13.8418L11.7246 14.0273C12.3452 13.6077 12.8916 13.0862 13.3398 12.4873L13.5264 12.2256ZM1.85742 11.0928C1.98417 11.392 2.13246 11.68 2.2998 11.9551L2.47266 12.2256C2.23296 11.871 2.02622 11.4923 1.85742 11.0938V11.0928ZM14.3662 10.4814C14.3012 10.6901 14.226 10.8944 14.1416 11.0938L14.0078 11.3887C14.1015 11.1945 14.1859 10.995 14.2607 10.791L14.3662 10.4814ZM1.99121 5.61328C1.75689 6.09894 1.5799 6.61719 1.46875 7.15918L1.41016 7.48633C1.51148 6.82485 1.71005 6.19508 1.99121 5.6123V5.61328ZM13.8604 5.3252C14.1685 5.89185 14.3969 6.50781 14.5303 7.1582L14.5898 7.48633C14.4885 6.82517 14.2889 6.1959 14.0078 5.61328L13.8604 5.3252ZM7.65723 1.84277C5.38796 1.95814 3.41464 3.21334 2.2998 5.0459L2.13867 5.3252C3.16587 3.43614 5.0796 2.09623 7.31836 1.86816L7.65723 1.84277ZM11.9863 3.16016C12.4998 3.54434 12.9566 4.00023 13.3408 4.51367L13.5264 4.77539C13.1667 4.24351 12.7321 3.7662 12.2383 3.3584L11.9863 3.16016ZM10.29 2.23926C10.6981 2.38891 11.0877 2.57704 11.4541 2.7998L11.7246 2.97363C11.3698 2.73374 10.9906 2.52731 10.5918 2.3584L10.29 2.23926ZM8.34277 1.84277L8.68066 1.86816C8.45684 1.84536 8.22974 1.834 8 1.83398C8.11495 1.83399 8.22923 1.837 8.34277 1.84277Z" fill="#0C0C0C" stroke="#0C0C0C"/>
<mask id="path-2-inside-1_13083_6300" fill="white">
<path d="M10.333 9H6.33301C6.05967 9 5.83301 8.77333 5.83301 8.5C5.83301 8.22667 6.05967 8 6.33301 8H10.333C10.6063 8 10.833 8.22667 10.833 8.5C10.833 8.77333 10.6063 9 10.333 9Z"/>
</mask>
<path d="M10.333 9H6.33301C6.05967 9 5.83301 8.77333 5.83301 8.5C5.83301 8.22667 6.05967 8 6.33301 8H10.333C10.6063 8 10.833 8.22667 10.833 8.5C10.833 8.77333 10.6063 9 10.333 9Z" fill="#0C0C0C"/>
<path d="M10.333 8H6.33301V10H10.333V8ZM6.33301 8C6.61196 8 6.83301 8.22105 6.83301 8.5H4.83301C4.83301 9.32562 5.50739 10 6.33301 10V8ZM6.83301 8.5C6.83301 8.77895 6.61196 9 6.33301 9V7C5.50739 7 4.83301 7.67438 4.83301 8.5H6.83301ZM6.33301 9H10.333V7H6.33301V9ZM10.333 9C10.0541 9 9.83301 8.77895 9.83301 8.5H11.833C11.833 7.67438 11.1586 7 10.333 7V9ZM9.83301 8.5C9.83301 8.22105 10.0541 8 10.333 8V10C11.1586 10 11.833 9.32562 11.833 8.5H9.83301Z" fill="#0C0C0C" mask="url(#path-2-inside-1_13083_6300)"/>
<mask id="path-4-inside-2_13083_6300" fill="white">
<path d="M7.6663 11.0003C7.53964 11.0003 7.41297 10.9536 7.31297 10.8536L5.31297 8.85362C5.11964 8.66029 5.11964 8.34029 5.31297 8.14695L7.31297 6.14695C7.5063 5.95362 7.8263 5.95362 8.01964 6.14695C8.21297 6.34029 8.21297 6.66029 8.01964 6.85362L6.37297 8.50029L8.01964 10.147C8.21297 10.3403 8.21297 10.6603 8.01964 10.8536C7.91964 10.9536 7.79297 11.0003 7.6663 11.0003Z"/>
</mask>
<path d="M7.6663 11.0003C7.53964 11.0003 7.41297 10.9536 7.31297 10.8536L5.31297 8.85362C5.11964 8.66029 5.11964 8.34029 5.31297 8.14695L7.31297 6.14695C7.5063 5.95362 7.8263 5.95362 8.01964 6.14695C8.21297 6.34029 8.21297 6.66029 8.01964 6.85362L6.37297 8.50029L8.01964 10.147C8.21297 10.3403 8.21297 10.6603 8.01964 10.8536C7.91964 10.9536 7.79297 11.0003 7.6663 11.0003Z" fill="#0C0C0C"/>
<path d="M7.31297 10.8536L8.02008 10.1465L7.31297 10.8536ZM5.31297 8.85362L4.60586 9.56073L4.60586 9.56073L5.31297 8.85362ZM5.31297 8.14695L4.60586 7.43985L4.60586 7.43985L5.31297 8.14695ZM7.31297 6.14695L8.02008 6.85406V6.85406L7.31297 6.14695ZM8.01964 6.85362L7.31253 6.14651V6.14651L8.01964 6.85362ZM6.37297 8.50029L5.66586 7.79318L4.95876 8.50029L5.66586 9.20739L6.37297 8.50029ZM8.01964 10.147L7.31253 10.8541L8.01964 10.147ZM7.6663 10.0003C7.79054 10.0003 7.92266 10.0491 8.02008 10.1465L6.60586 11.5607C6.90328 11.8581 7.28873 12.0003 7.6663 12.0003V10.0003ZM8.02008 10.1465L6.02008 8.14651L4.60586 9.56073L6.60586 11.5607L8.02008 10.1465ZM6.02008 8.14651C6.21727 8.3437 6.21727 8.65687 6.02008 8.85406L4.60586 7.43985C4.022 8.0237 4.022 8.97687 4.60586 9.56073L6.02008 8.14651ZM6.02008 8.85406L8.02008 6.85406L6.60586 5.43985L4.60586 7.43985L6.02008 8.85406ZM8.02008 6.85406C7.82289 7.05125 7.50972 7.05125 7.31253 6.85406L8.72674 5.43985C8.14288 4.85599 7.18972 4.85599 6.60586 5.43985L8.02008 6.85406ZM7.31253 6.85406C7.11534 6.65687 7.11534 6.3437 7.31253 6.14651L8.72674 7.56073C9.3106 6.97687 9.3106 6.0237 8.72674 5.43985L7.31253 6.85406ZM7.31253 6.14651L5.66586 7.79318L7.08008 9.20739L8.72674 7.56073L7.31253 6.14651ZM5.66586 9.20739L7.31253 10.8541L8.72674 9.43985L7.08008 7.79318L5.66586 9.20739ZM7.31253 10.8541C7.11534 10.6569 7.11534 10.3437 7.31253 10.1465L8.72674 11.5607C9.3106 10.9769 9.3106 10.0237 8.72674 9.43985L7.31253 10.8541ZM7.31253 10.1465C7.40995 10.0491 7.54206 10.0003 7.6663 10.0003V12.0003C8.04388 12.0003 8.42932 11.8581 8.72674 11.5607L7.31253 10.1465Z" fill="#0C0C0C" mask="url(#path-4-inside-2_13083_6300)"/>
</svg>
