<svg width="21" height="20" viewBox="0 0 21 20" fill="currentcolor" xmlns="http://www.w3.org/2000/svg">
<path d="M12.2299 1.51063L13.9899 5.03063C14.2299 5.52063 14.8699 5.99062 15.4099 6.08063L18.5999 6.61062C20.6399 6.95062 21.1199 8.43062 19.6499 9.89062L17.1699 12.3706C16.7499 12.7906 16.5199 13.6006 16.6499 14.1806L17.3599 17.2506C17.9199 19.6806 16.6299 20.6206 14.4799 19.3506L11.4899 17.5806C10.9499 17.2606 10.0599 17.2606 9.50991 17.5806L6.51991 19.3506C4.37991 20.6206 3.07991 19.6706 3.63991 17.2506L4.34991 14.1806C4.47991 13.6006 4.24991 12.7906 3.82991 12.3706L1.34991 9.89062C-0.110091 8.43062 0.359909 6.95062 2.39991 6.61062L5.58991 6.08063C6.11991 5.99062 6.75991 5.52063 6.99991 5.03063L8.75991 1.51063C9.71991 -0.399375 11.2799 -0.399375 12.2299 1.51063Z"/>
</svg>
